# xmcd
#
# Track frame offsets:
# 150
# 14867
# 27182
# 40157
# 59482
# 71302
# 87370
# 101967
# 117087
# 138272
# 165727
# 179090
#
# Disc length: 2582 seconds
#
#
# Revision: 0
# Processed by: cddbd v1.5.1PL0 Copyright (c) Steve Scherf et al.
# Submitted via: FreeRIP 2.80 
#
DISCID=a90a140c
DTITLE=The Paramounts - Get On The Floor
DYEAR=1999
DGENRE=Blues
TTITLE0=Shake Your Money Maker
TTITLE1=You're So Fine
TTITLE2=Get On The Floor
TTITLE3=I Tried
TTITLE4=Jumpin' for Josie
TTITLE5=Someday Your Baby
TTITLE6=Roll Your Money Maker
TTITLE7=Gimme' What You Got
TTITLE8=HooDoo Man
TTITLE9=Easy Baby
TTITLE10=One of These Mornings
TTITLE11=Honest I Do
EXTD=Guitar:  Joe appas, Vocals and Harmonica:  Robert Martino, Upright and Electric Bass:  Damian "the Big D" Purro and Drums:  Marty Richards
EXTT0=
EXTT1=
EXTT2=
EXTT3=
EXTT4=
EXTT5=
EXTT6=
EXTT7=
EXTT8=
EXTT9=
EXTT10=
EXTT11=
PLAYORDER=
